PathFileType	4	(X/Y/Z)	C:\Users\adpatrick\OneDrive - nih.no\Desktop\WebApp1080sync\WebAppv0.1\fp22_m505_left 2_Sports2D\fp22_m505_left 2_Sports2D_m_person00.trc
DataRate	CameraRate	NumFrames	NumMarkers	Units	OrigDataRate	OrigDataStartFrame	OrigNumFrames
60	60	10	22	m	60	217	869
Frame#	Time	Hip			RHip			RKnee			RAnkle			RBigToe			RSmallToe			RHeel			LHip			LKnee			LAnkle			LBigToe			LSmallToe			LHeel			Neck			Head			Nose			RShoulder			RElbow			RWrist			LShoulder			LElbow			LWrist		
		X1	Y1	Z1	X2	Y2	Z2	X3	Y3	Z3	X4	Y4	Z4	X5	Y5	Z5	X6	Y6	Z6	X7	Y7	Z7	X8	Y8	Z8	X9	Y9	Z9	X10	Y10	Z10	X11	Y11	Z11	X12	Y12	Z12	X13	Y13	Z13	X14	Y14	Z14	X15	Y15	Z15	X16	Y16	Z16	X17	Y17	Z17	X18	Y18	Z18	X19	Y19	Z19	X20	Y20	Z20	X21	Y21	Z21	X22	Y22	Z22
217	3.6166666666666667	0.7170392775822144	0.8234074765447857	0.0301	0.5871254048110401	0.8259048857225237	0.0301	0.5126133428508471	0.3358456257147448	0.0179	0.38919308849193834	-0.15594129967498507	0.023	0.5168286158008185	-0.2686852395875006	0.2179	0.433712126014067	-0.2872468934598315	0.1804	0.33900598024201783	-0.23287726487116026	-0.0119	0.8165492888123527	0.8353817924659087	-0.0301	0.988187074937262	0.4002710283230132	-0.0179	1.017941156471075	-0.09845617688254883	0.023	1.1948945198725538	-0.20809053490565724	0.2179	1.2068295587988573	-0.1809166029916885	0.1804	0.9765146471510036	-0.17580237550720293	-0.0119	0.843494469468496	1.4751881602444907	-0.0008	0.9669623600582353	1.7758353704729994	0.0655	1.0094468370425698	1.5859752696192218	0.1076	0.6102074090026017	1.3798037444304192	-0.01275	0.5070988036598032	1.0235077743443066	0.0119	0.5977000435524523	0.7228096524393574	0.0002	0.9963768405884076	1.3494136147646547	0.01275	1.0268246785004707	1.0260997028416514	-0.0119	1.1147898042187903	0.7582019522084736	-0.0002
218	3.6333333333333333	0.7166275084102113	0.82335383173825	0.0301	0.5869550347423697	0.8263094957591597	0.0301	0.5126703601949426	0.33629871911775894	0.0179	0.3890381512147993	-0.15532737880044395	0.023	0.517230360469318	-0.2684775011809788	0.2179	0.4337459724869473	-0.2872521818467965	0.1804	0.33898735004708747	-0.23264507764342365	-0.0119	0.8166839790457873	0.8359254427920565	-0.0301	0.9884491329331864	0.4002624236908728	-0.0179	1.0183337215173431	-0.09820981184917213	0.023	1.1948555216139813	-0.20893376710751685	0.2179	1.2067846628429255	-0.1817209634332666	0.1804	0.9768261302240928	-0.17643141120335024	-0.0119	0.8437629357980269	1.4748977455580214	-0.0008	0.9676541462900853	1.7752653804611958	0.0655	1.009789653048801	1.5849584857463799	0.1076	0.6104764535513688	1.3795106458788076	-0.01275	0.5079856457964733	1.0225659152752717	0.0119	0.5993526350851	0.7221141342251568	0.0002	0.9965430550522144	1.3492324167904777	0.01275	1.0275074808478974	1.0271619270466577	-0.0119	1.1150196283175553	0.7585252528972461	-0.0002
219	3.65	0.7164370327346691	0.8233496409794607	0.0301	0.5867882085503214	0.8264432479958898	0.0301	0.5126090717930172	0.3365872676347666	0.0179	0.3886543849525089	-0.1548199626577107	0.023	0.5173998110327216	-0.2682102932185027	0.2179	0.43360021545580923	-0.2871765038863173	0.1804	0.3387977723596807	-0.2323838931081339	-0.0119	0.8168906553439322	0.8361288401838498	-0.0301	0.9887644338195233	0.40022636988269644	-0.0179	1.0189586709459688	-0.09779042280788847	0.023	1.194824805569109	-0.20916635343318982	0.2179	1.2067781097032027	-0.18220711274512888	0.1804	0.9771562746745068	-0.17683631664307967	-0.0119	0.8439981407236605	1.4745871990717496	-0.0008	0.9685307801125662	1.7748866357187212	0.0655	1.0102974737163646	1.5839853557578727	0.1076	0.6106492595907683	1.3791987531723942	-0.01275	0.5088748219859696	1.02152390004508	0.0119	0.6010179702680719	0.7213527767047765	0.0002	0.9967839639563142	1.3491825537769597	0.01275	1.027966812636303	1.028055971915893	-0.0119	1.115216403642408	0.7585034329270718	-0.0002
220	3.6666666666666665	0.7164838577547102	0.8237948958573309	0.0301	0.5866338236088642	0.8268775891387925	0.0301	0.512486291148422	0.33683636705842096	0.0179	0.3882621651039582	-0.15465615961878051	0.023	0.5176010807309613	-0.2679903267432206	0.2179	0.4334727640185674	-0.2870627648846335	0.1804	0.3384246496332365	-0.23217519147632673	-0.0119	0.8171085261164525	0.8363168114696993	-0.0301	0.9891457373315419	0.40035202575647577	-0.0179	1.0196519475841725	-0.09734831454947795	0.023	1.194765023054034	-0.2090325540250048	0.2179	1.2067915996666732	-0.18244796119668968	0.1804	0.9775345940020519	-0.17708411950257774	-0.0119	0.8443959648257178	1.474234583617427	-0.0008	0.969538561437731	1.7744355237171061	0.0655	1.0109504521782469	1.5831258323131627	0.1076	0.6108422768576837	1.3787958748271847	-0.01275	0.5096311383732047	1.0203337294367183	0.0119	0.6026200726591204	0.7206477498824169	0.0002	0.9970349403475514	1.349162707159477	0.01275	1.0281825037890029	1.028427906283649	-0.0119	1.115429896974586	0.7582682012127596	-0.0002
221	3.683333333333333	0.7166575929680208	0.8247653074097953	0.0301	0.5864069673068256	0.8280110566843096	0.0301	0.5124297754020201	0.33697189951323847	0.0179	0.38809637546022846	-0.15485938326816062	0.023	0.5180126438253853	-0.2678965687738403	0.2179	0.43352053782366307	-0.28694706808114145	0.1804	0.337988580199361	-0.2320775974806542	-0.0119	0.81722087501423	0.8367651135515672	-0.0301	0.9895516893828399	0.4007146790886347	-0.0179	1.02023183386294	-0.09701961277091976	0.023	1.1945704959711698	-0.208912192898874	0.2179	1.206750123434219	-0.18262744315855062	0.1804	0.9779160435596573	-0.17718321819619118	-0.0119	0.8449838048860918	1.4737689178444267	-0.0008	0.9705561931418268	1.7737973359653285	0.0655	1.0117392668301934	1.582263413880853	0.1076	0.6109763675904853	1.3783254108859055	-0.01275	0.5102464312861379	1.0188662963100252	0.0119	0.6040891400257998	0.7201005157662913	0.0002	0.9972559770402892	1.3491366204551571	0.01275	1.0282066037787334	1.027977672325866	-0.0119	1.1157450902128367	0.7580056907141395	-0.0002
222	3.6999999999999997	0.7168736161125164	0.8259731769536602	0.0301	0.5861515050119798	0.8294475271282481	0.0301	0.5124130473638068	0.33686165762392367	0.0179	0.38823567257404246	-0.15516138291062084	0.023	0.5184277053644889	-0.2680161872425789	0.2179	0.4336360196674125	-0.2869047787885531	0.1804	0.33757489044023076	-0.23210295717902363	-0.0119	0.8171970576170373	0.837279770710383	-0.0301	0.989941908323673	0.4010880729300435	-0.0179	1.0205996784989546	-0.09675071273580042	0.023	1.1944033371409537	-0.2085942540856511	0.2179	1.206870447281785	-0.18265394818928918	0.1804	0.978197696014942	-0.17712706007631557	-0.0119	0.8457035257935148	1.4731557551480523	-0.0008	0.971424959169943	1.7733525128531311	0.0655	1.0125955557789759	1.5815025649650196	0.1076	0.6109059012790139	1.3779351989144741	-0.01275	0.5108411093225	1.0173469053560005	0.0119	0.6054182228551515	0.7198892862103671	0.0002	0.9974141995439845	1.349103746728022	0.01275	1.0280239807662654	1.0268969833561474	-0.0119	1.1161347332605593	0.757707611193339	-0.0002
223	3.716666666666667	0.717134867325904	0.8271175851179368	0.0301	0.5860148391059231	0.8306062698121578	0.0301	0.5123215505932506	0.33641999429353403	0.0179	0.388556570260263	-0.1553159564275888	0.023	0.518615005564188	-0.2684241263614167	0.2179	0.43374949510380484	-0.28694553181504684	0.1804	0.3372148543486901	-0.23218773834248752	-0.0119	0.8171096233319978	0.8376998260785237	-0.0301	0.9903554341602392	0.401106206681759	-0.0179	1.0207798055270034	-0.09651829137006056	0.023	1.1943784840507599	-0.20792896464140453	0.2179	1.207292102624621	-0.18241797805405502	0.1804	0.9783437649115886	-0.17700699743100615	-0.0119	0.8463759225664904	1.4725402378280918	-0.0008	0.9720055507992162	1.7733549254246288	0.0655	1.013288655792664	1.5810287643423213	0.1076	0.6106787435630471	1.3777096014936694	-0.01275	0.5115191946850247	1.0162295817516431	0.0119	0.6066269241403061	0.7201220967836608	0.0002	0.997422257514498	1.3491669944322053	0.01275	1.027648766621505	1.0256477140907891	-0.0119	1.1165501121211006	0.7572419754496349	-0.0002
224	3.7333333333333334	0.7173783649942445	0.828055696403733	0.0301	0.586016233540051	0.8314292689125794	0.0301	0.5121489003407987	0.33569269874514257	0.0179	0.3888576213227872	-0.1553066822477309	0.023	0.5186736448305772	-0.26904659597141006	0.2179	0.43402161251385224	-0.2869502250476927	0.1804	0.3369696464275709	-0.23222703448265508	-0.0119	0.8170438674572423	0.8383080515236132	-0.0301	0.9908320208344931	0.40068857753009335	-0.0179	1.0208266540886424	-0.09647997159948135	0.023	1.1942675334793473	-0.20744993469681813	0.2179	1.207702410276166	-0.18217365035625022	0.1804	0.9783860872908029	-0.17697410820042195	-0.0119	0.8467213074348854	1.4721700749424662	-0.0008	0.9722373590522274	1.7735109420528303	0.0655	1.0135664396978223	1.580867762042696	0.1076	0.6105237877450829	1.3775637948632564	-0.01275	0.512287437112111	1.0157376781719345	0.0119	0.607679181550526	0.7207661279185966	0.0002	0.9972097045127549	1.3494368058772699	0.01275	1.0272890726232322	1.0245080223576284	-0.0119	1.1170477381918862	0.7566313340060686	-0.0002
225	3.75	0.7174488268044713	0.8286240524706393	0.0301	0.5860478894702333	0.8319790309057064	0.0301	0.511914292611069	0.3348921420547367	0.0179	0.3889581860440295	-0.1551970058134633	0.023	0.5187445847100077	-0.2697206558454844	0.2179	0.43449286145918803	-0.2868092002369651	0.1804	0.33688103357589777	-0.23215082448926538	-0.0119	0.8170024410232549	0.8392453027725558	-0.0301	0.9912862149132619	0.40012244455763774	-0.0179	1.0207511284412936	-0.0967714317111088	0.023	1.1938989080017155	-0.20759256965658382	0.2179	1.2077585111869653	-0.18224700393683632	0.1804	0.978322863143481	-0.1770890286918527	-0.0119	0.846620769473556	1.47219881851666	-0.0008	0.9721277751341063	1.7736051527449097	0.0655	1.0133947598241886	1.5810589373114072	0.1076	0.6105927903241902	1.3774080853523396	-0.01275	0.513065218999	1.0157974018004798	0.0119	0.6085432549047886	0.7216813381471415	0.0002	0.9968506516829221	1.3498213850967458	0.01275	1.0271761510889055	1.023656013145896	-0.0119	1.1176329811786485	0.7560838641519151	-0.0002
226	3.7666666666666666	0.7173433238418329	0.8286103885677445	0.0301	0.5861117297166604	0.8319963425341363	0.0301	0.5115096582198821	0.3342488376576133	0.0179	0.38875839198185597	-0.15499302732302203	0.023	0.5186522220509091	-0.2703608708038948	0.2179	0.43484375067068154	-0.2865749804928796	0.1804	0.33689592768984944	-0.23197935611950346	-0.0119	0.8169325510466006	0.840093051128319	-0.0301	0.9915542403784128	0.39966244875718077	-0.0179	1.0205796097193158	-0.09730172290405352	0.023	1.1935112964871502	-0.20800125710854697	0.2179	1.2075979981828722	-0.18255426110622133	0.1804	0.9781155912500721	-0.1772467728852891	-0.0119	0.8462895450532446	1.4726400550093495	-0.0008	0.9716949805462253	1.7739166131774113	0.0655	1.0129628814544533	1.5817442825001167	0.1076	0.6108995886676698	1.377294244159283	-0.01275	0.5137380991109304	1.0162673572367935	0.0119	0.6093253459161223	0.7226290893959805	0.0002	0.9965445195485525	1.3501065075067404	0.01275	1.0273095053612318	1.0233392968236346	-0.0119	1.1180744808448617	0.7557380253293763	-0.0002
